<svg aria-hidden="true" style="position: absolute; width: 0; height: 0; overflow: hidden;" version="1.1" xmlns="http://www.w3.org/2000/svg" xmlns:xlink="http://www.w3.org/1999/xlink">
<defs>
<symbol id="icon-arrow" viewBox="0 0 18 32">
<path d="M17.253 3.611l-2.425-2.423-13.209 13.205c-0.213 0.212-0.382 0.463-0.497 0.74s-0.175 0.574-0.175 0.875c0 0.3 0.059 0.597 0.175 0.875s0.284 0.529 0.497 0.74l13.209 13.211 2.423-2.423-12.398-12.4 12.4-12.4z"></path>
</symbol>
<symbol id="icon-close" viewBox="0 0 30 32">
<path d="M29.242 2.607c0.833 0.833 0.833 2.184 0 3.017l-25.6 25.6c-0.833 0.833-2.184 0.833-3.017 0s-0.833-2.184 0-3.017l25.6-25.6c0.833-0.833 2.184-0.833 3.017 0z"></path>
<path d="M0.625 2.607c0.833-0.833 2.184-0.833 3.017 0l25.6 25.6c0.833 0.833 0.833 2.184 0 3.017s-2.184 0.833-3.017 0l-25.6-25.6c-0.833-0.833-0.833-2.184 0-3.017z"></path>
</symbol>
<symbol id="icon-burger" viewBox="0 0 34 32">
<path d="M0 2.207c0-0.566 0.225-1.108 0.625-1.508s0.943-0.625 1.508-0.625h29.867c0.566 0 1.108 0.225 1.508 0.625s0.625 0.943 0.625 1.508c0 0.566-0.225 1.108-0.625 1.508s-0.943 0.625-1.508 0.625h-29.867c-0.566 0-1.108-0.225-1.508-0.625s-0.625-0.943-0.625-1.508zM0 15.007c0-0.566 0.225-1.108 0.625-1.508s0.943-0.625 1.508-0.625h29.867c0.566 0 1.108 0.225 1.508 0.625s0.625 0.943 0.625 1.508c0 0.566-0.225 1.108-0.625 1.508s-0.943 0.625-1.508 0.625h-29.867c-0.566 0-1.108-0.225-1.508-0.625s-0.625-0.943-0.625-1.508zM2.133 25.674c-0.566 0-1.108 0.225-1.508 0.625s-0.625 0.943-0.625 1.509c0 0.566 0.225 1.108 0.625 1.508s0.943 0.625 1.508 0.625h29.867c0.566 0 1.108-0.225 1.508-0.625s0.625-0.943 0.625-1.508c0-0.566-0.225-1.108-0.625-1.509s-0.943-0.625-1.508-0.625h-29.867z"></path>
</symbol>
</defs>
</svg>
